<svg width="163" height="88" viewBox="0 0 163 88" fill="none" xmlns="http://www.w3.org/2000/svg">
<path d="M140.057 21.3944L145.201 18.9476L146.506 18.6336C146.571 18.1867 146.438 18.2747 146.085 18.2919C144.775 18.3523 142.733 18.7854 141.357 19.0097C130.732 20.7387 120.271 23.4615 109.837 26.0566C109.79 26.5035 109.837 26.331 110.085 26.4052C115.255 27.946 120.87 29.4438 125.026 33.1346C131.788 39.1427 126.36 43.9293 121.195 48.0376C114.973 52.9846 107.459 57.6417 100.553 61.5672C95.1629 64.6317 89.4962 67.6944 83.2489 68.4813C75.0255 69.5166 66.5204 63.7672 65.8685 55.0449C65.6155 54.7498 64.0486 56.9722 63.8364 57.2052C62.4307 58.7478 59.0745 62.1297 56.9541 62.1194C55.7964 62.1142 55.1241 61.2031 54.7863 60.1816C54.0257 57.8885 54.7387 54.774 55.2565 52.4515C55.5349 51.1987 56.1036 49.9064 56.1087 48.6588C52.1753 54.0251 48.4286 59.5329 44.1353 64.6144C40.7722 68.5951 36.4908 73.4921 32.5981 76.8723C30.1824 78.9705 25.6768 82.7545 22.5786 79.9782C18.4449 76.2736 23.9299 66.1018 25.5478 61.9417C26.8974 58.4717 28.2725 54.981 29.3692 51.4196C26.3406 51.9994 23.2186 53.5799 20.1153 53.8318C17.1343 54.0734 16.4688 53.1606 18.8591 51.1746C22.5515 48.1067 28.0875 46.2362 32.2093 43.7791C33.5946 41.0839 34.0581 37.293 35.3941 34.6789C35.8134 33.8576 36.8965 33.9628 36.8116 34.7238C36.0239 37.1481 34.6115 39.8088 34.0309 42.2659C33.9766 42.4971 33.7746 43.0889 34.2041 42.9595C44.6785 37.6606 55.557 33.2122 66.7071 29.5784C68.3402 27.5975 69.7255 25.4251 71.3841 23.4615C71.9053 22.8438 73.9475 20.3901 74.5128 20.2624L75.3039 20.7042L75.2479 21.1649L69.605 28.5534C69.6712 28.7656 69.97 28.5879 70.121 28.5603C70.7322 28.4482 73.7065 27.6855 74.0664 27.4387C74.3872 27.2196 76.3769 23.9067 76.9082 23.2078C78.3088 21.3667 81.3815 17.6759 83.2998 16.5923C83.8431 16.2852 84.3405 15.9798 84.8956 16.5026C85.4219 17.3412 84.3999 20.0364 84.079 21.0061C83.5409 22.635 82.7345 24.1931 82.3356 25.8755C90.0429 24.5365 97.8944 24.7194 105.654 25.5183C118.375 22.1484 131.2 18.8475 144.242 16.9322C146.535 16.5958 149.226 16.1178 151.514 16.0436C152.759 16.0022 154.422 16.4698 152.905 17.8019L140.054 21.3892L140.057 21.3944ZM80.935 26.01C81.3679 24.9851 83.9415 18.6974 83.5222 18.1176C80.4393 20.2676 78.1577 23.7238 76.056 26.8331L80.935 26.0118V26.01ZM101.01 26.5743C96.4481 26.262 91.9018 26.1256 87.3436 26.5743C86.1417 26.6916 82.9484 26.9522 81.991 27.3456C81.6226 27.4974 81.575 27.6217 81.39 27.9426C80.8518 28.8761 79.7959 31.4177 79.4122 32.4893C79.3341 32.7049 79.2289 32.8792 79.2798 33.1294L101.008 26.576L101.01 26.5743ZM70.3417 62.2298C79.2951 71.7355 91.9697 64.8767 101.123 59.5588C107.802 55.6798 116.923 50.2722 122.571 45.1233C124.255 43.5876 127.608 40.461 126.596 37.9194C125.469 35.0896 123.245 33.4314 120.704 32.0044C117.424 30.1616 108.438 26.7744 104.868 27.3042C103.68 27.4802 101.741 28.1824 100.463 28.5206C93.046 30.4739 85.6765 32.698 78.3818 35.0654C74.8897 41.2634 71.2024 47.432 67.0925 53.2693C67.0925 56.4218 68.1722 59.9297 70.3417 62.2315V62.2298ZM80.1286 27.7821C79.8689 27.5319 75.3124 28.4913 74.8558 28.8916C74.4348 29.2591 73.4162 31.2831 73.08 31.9181C72.4791 33.0569 71.8306 34.3114 71.4724 35.5451C71.7185 35.7677 77.0474 33.9646 77.7452 33.5539L80.1286 27.7821ZM72.8288 29.3351C72.6386 29.1522 68.1399 30.5998 67.8174 30.8828C67.2045 31.4229 65.1266 34.7445 64.5426 35.6642C64.3406 35.9817 62.8755 38.3611 62.9842 38.4784L69.6831 36.2301L72.8271 29.3333L72.8288 29.3351ZM31.7476 49.0039L60.3868 39.3774C61.1507 38.9529 62.188 36.6287 62.7431 35.7332C63.4731 34.5598 64.3762 33.4003 65.023 32.1838C65.1334 31.9768 65.2539 31.8526 65.1877 31.5765C54.1887 35.1034 43.626 39.8416 33.2245 44.8541L31.7459 49.0039H31.7476ZM76.5619 35.7176L70.4674 37.7175C69.0481 41.9311 67.2724 46.2035 67.2283 50.7294C69.9173 47.2198 72.3484 43.472 74.5553 39.6293C75.1002 38.682 75.9881 37.2671 76.4023 36.3302C76.4923 36.1249 76.6298 35.9886 76.5636 35.7194L76.5619 35.7176ZM56.4058 60.5181C57.2835 61.3602 59.8028 59.2809 60.5175 58.6615C62.4494 56.986 64.0859 54.8447 65.607 52.7914C65.7683 49.3853 66.3064 46.0171 67.2775 42.7559C67.4693 42.1106 68.931 38.3732 68.7544 38.1333C66.7835 38.9409 63.9875 39.3377 62.1336 40.2885C61.6634 40.53 61.5395 40.6888 61.2526 41.1184C59.5549 43.6687 57.6587 48.3551 56.8845 51.3454C56.4364 53.0778 55.102 59.2671 56.4058 60.5164V60.5181ZM59.4157 41.2392C49.9174 44.3762 40.3359 47.3526 30.9853 50.9054C29.1824 55.7454 27.1504 60.5164 25.3339 65.3495C24.2084 68.3467 22.122 73.2195 22.4021 76.3599C22.5735 78.282 23.5327 79.6987 25.5563 79.552C29.6306 79.2552 37.6859 70.155 40.4904 66.9525C47.101 59.4 53.5521 50.726 58.9455 42.2279C59.0592 42.0485 59.5532 41.3807 59.4157 41.2409V41.2392ZM31.4047 45.898C27.9567 47.6529 23.9215 49.2904 20.8267 51.6232C20.5533 51.8303 19.9727 52.0649 20.0322 52.4532C23.4156 51.8527 26.6784 50.7311 29.943 49.6734C30.4064 49.418 31.5439 46.0464 31.4047 45.898Z" fill="white" fill-opacity="0.7"/>
</svg>
