<svg width="265" height="127" viewBox="0 0 265 127" fill="none" xmlns="http://www.w3.org/2000/svg">
  <path d="M238.563 10.4023L248.568 5.64786L251.108 5.03763C251.233 4.16922 250.975 4.34022 250.289 4.37375C247.739 4.4911 243.767 5.33269 241.092 5.76857C220.425 9.12822 200.077 14.4192 179.782 19.462C179.69 20.3304 179.782 19.9951 180.265 20.1393C190.319 23.1334 201.243 26.0438 209.326 33.2157C222.478 44.8907 211.922 54.1917 201.873 62.1751C189.771 71.788 175.156 80.8376 161.723 88.4655C151.239 94.4203 140.217 100.372 128.065 101.901C112.07 103.913 95.5265 92.7405 94.2585 75.7914C93.7665 75.218 90.7187 79.5366 90.3059 79.9893C87.5718 82.9868 81.0436 89.5586 76.9193 89.5385C74.6673 89.5284 73.3596 87.758 72.7025 85.7731C71.2232 81.317 72.6101 75.265 73.6172 70.7519C74.1587 68.3177 75.2649 65.8063 75.2748 63.3822C67.6239 73.8098 60.3362 84.5124 51.9852 94.3868C45.4438 102.122 37.116 111.638 29.5443 118.206C24.8454 122.283 16.0817 129.636 10.0554 124.241C2.01481 117.043 12.6838 97.277 15.8307 89.1931C18.4559 82.4503 21.1306 75.6673 23.2637 68.7469C17.3728 69.8734 11.3003 72.9447 5.26406 73.4343C-0.5344 73.9037 -1.82882 72.13 2.82052 68.2707C10.0025 62.3092 20.7706 58.6746 28.7881 53.9C31.4826 48.6627 32.3841 41.2963 34.9828 36.2166C35.7984 34.6206 37.9052 34.8252 37.7401 36.3038C36.2079 41.0147 33.4606 46.1849 32.3312 50.9595C32.2256 51.4088 31.8326 52.5589 32.6681 52.3074C53.0419 42.0105 74.2017 33.3666 95.8898 26.3053C99.0664 22.4562 101.761 18.2348 104.987 14.4192C106.001 13.2188 109.973 8.45092 111.073 8.20281L112.612 9.06116L112.503 9.95639L101.526 24.3137C101.655 24.7261 102.236 24.3807 102.53 24.3271C103.719 24.1092 109.504 22.6272 110.204 22.1477C110.828 21.7219 114.698 15.2842 115.732 13.9263C118.456 10.3487 124.433 3.17675 128.164 1.0711C129.221 0.474276 130.188 -0.119196 131.268 0.896746C132.292 2.52628 130.304 7.76357 129.68 9.64792C128.633 12.8131 127.065 15.8408 126.289 19.1099C141.28 16.508 156.552 16.8635 171.646 18.4159C196.389 11.8676 221.336 5.45339 246.703 1.73163C251.164 1.0778 256.397 0.149041 260.849 0.00486455C263.269 -0.075606 266.505 0.833039 263.553 3.42151L238.556 10.3923L238.563 10.4023ZM123.565 19.3715C124.407 17.3798 129.413 5.16169 128.597 4.0351C122.6 8.21286 118.162 14.9288 114.074 20.9708L123.565 19.3748V19.3715ZM162.612 20.4679C153.739 19.861 144.896 19.5961 136.03 20.4679C133.692 20.6959 127.481 21.2022 125.618 21.9666C124.902 22.2617 124.809 22.5031 124.449 23.1267C123.403 24.9407 121.349 29.8796 120.603 31.9617C120.451 32.3809 120.246 32.7195 120.345 33.2057L162.608 20.4712L162.612 20.4679ZM102.96 89.753C120.375 108.224 145.028 94.8965 162.833 84.5627C175.823 77.0253 193.565 66.5172 204.551 56.512C207.827 53.5279 214.349 47.4523 212.381 42.5134C210.188 37.0146 205.862 33.7925 200.919 31.0196C194.54 27.4386 177.062 20.8568 170.117 21.8862C167.806 22.2282 164.035 23.5928 161.548 24.25C147.122 28.0455 132.787 32.3675 118.598 36.9677C111.806 49.0115 104.634 60.9982 96.6393 72.3412C96.6393 78.467 98.7395 85.2836 102.96 89.7564V89.753ZM121.996 22.8149C121.491 22.3287 112.628 24.193 111.74 24.9709C110.921 25.685 108.94 29.618 108.286 30.8519C107.117 33.0649 105.855 35.5025 105.159 37.8998C105.638 38.3323 116.003 34.8285 117.36 34.0305L121.996 22.8149ZM107.797 25.8326C107.427 25.4772 98.6767 28.2903 98.0493 28.8402C96.8573 29.8896 92.8155 36.344 91.6796 38.1312C91.2866 38.7481 88.437 43.3718 88.6483 43.5998L101.678 39.2309L107.794 25.8292L107.797 25.8326ZM27.8899 64.0527L83.5961 45.3467C85.082 44.5219 87.0996 40.0055 88.1794 38.2653C89.5993 35.9853 91.356 33.7321 92.6141 31.3683C92.8287 30.9659 93.0632 30.7245 92.9344 30.188C71.5402 37.0415 50.9946 46.2486 30.7628 55.9889L27.8866 64.0527H27.8899ZM115.058 38.2351L103.204 42.1212C100.443 50.309 96.9893 58.6109 96.9035 67.4057C102.134 60.5858 106.863 53.3032 111.155 45.8362C112.215 43.9954 113.942 41.246 114.748 39.4254C114.923 39.0264 115.19 38.7615 115.062 38.2385L115.058 38.2351ZM75.8527 86.4269C77.5599 88.0632 82.4602 84.0229 83.8504 82.8192C87.6081 79.5634 90.7913 75.4025 93.75 71.4125C94.0637 64.7938 95.1105 58.2488 96.9992 51.9117C97.3724 50.6577 100.215 43.3953 99.8721 42.9292C96.0384 44.4984 90.5998 45.2696 86.9939 47.117C86.0793 47.5865 85.8382 47.8949 85.2802 48.7298C81.9781 53.6854 78.2896 62.792 76.7839 68.6027C75.9121 71.969 73.3167 83.996 75.8527 86.4236V86.4269ZM81.7073 48.9645C63.2321 55.0602 44.5952 60.844 26.4073 67.7477C22.9005 77.1527 18.9479 86.4236 15.4147 95.8152C13.2254 101.639 9.16712 111.108 9.71197 117.21C10.0455 120.945 11.9112 123.698 15.8472 123.413C23.7722 122.837 39.4406 105.153 44.8957 98.93C57.754 84.2542 70.3019 67.399 80.7926 50.8857C81.0139 50.537 81.9748 49.2394 81.7073 48.9679V48.9645ZM27.2229 58.0174C20.5164 61.4274 12.6673 64.6093 6.64763 69.1425C6.116 69.5449 4.98668 70.0009 5.10226 70.7553C11.6833 69.5885 18.0299 67.409 24.3798 65.3537C25.2813 64.8575 27.4937 58.3058 27.2229 58.0174Z" stroke="white" stroke-width="1" fill="white" />
</svg>